
Complete name                    : The 36th Chamber of Shaolin (1978).mp4
Format                           : MPEG-4
Format profile                   : Base Media / Version 2
Codec ID                         : mp42
File size                        : 436 MiB
Duration                         : 1h 54mn
Overall bit rate                 : 530 Kbps
Encoded date                     : UTC 2012-01-26 05:53:30
Tagged date                      : UTC 2012-01-26 05:53:30

Video
ID                               : 1
Format                           : AVC
Format/Info                      : Advanced Video Codec
Format profile                   : Baseline@L2.1
Format settings, CABAC           : No
Format settings, ReFrames        : 1 frame
Codec ID                         : avc1
Codec ID/Info                    : Advanced Video Coding
Duration                         : 1h 54mn
Bit rate mode                    : Variable
Bit rate                         : 432 Kbps
Maximum bit rate                 : 1 940 Kbps
Width                            : 544 pixels
Height                           : 256 pixels
Display aspect ratio             : 2.2:1
Frame rate mode                  : Constant
Frame rate                       : 23.976 fps
Color space                      : YUV
Chroma subsampling               : 4:2:0
Bit depth                        : 8 bits
Scan type                        : Progressive
Bits/(Pixel*Frame)               : 0.129
Stream size                      : 355 MiB (81%)
Tagged date                      : UTC 2012-01-26 05:53:39

Audio
ID                               : 2
Format                           : AAC
Format/Info                      : Advanced Audio Codec
Format profile                   : LC
Codec ID                         : 40
Duration                         : 1h 54mn
Bit rate mode                    : Variable
Bit rate                         : 96.0 Kbps
Maximum bit rate                 : 122 Kbps
Channel(s)                       : 2 channels
Channel positions                : Front: L R
Sampling rate                    : 44.1 KHz
Compression mode                 : Lossy
Stream size                      : 78.9 MiB (18%)
Title                            : IsoMedia File Produced by Google, 5-11-2011
Encoded date                     : UTC 2012-01-26 05:53:33
Tagged date                      : UTC 2012-01-26 05:53:39
